<svg id="Capa_1" enable-background="new 0 0 512 512" height="512" viewBox="0 0 512 512" width="512" xmlns="http://www.w3.org/2000/svg"><g><path d="m420.418 199.705v-13.416c0-55.817-3.829-98.884-47.065-134.185-32.082-26.194-73.013-51.074-117.353-51.074-8.409 0-16.695-.469-24.821.62-34.725 4.651-66.534 18.926-92.531 40.151-43.236 35.301-67.669 88.67-67.669 144.487v13.416c0 75.478-7.891 150.75-23.543 224.588l-10.651 50.241c-1.763 8.317 3.506 16.586 11.832 18.303 22.694 4.682 27.725 19.164 58.854 19.164 37.129 0 37.129-20.604 74.258-20.604 37.131 0 37.131 20.604 74.262 20.604 37.132 0 37.132-20.604 74.264-20.604 37.134 0 37.134 20.604 74.267 20.604 11.675 0 19.679-2.037 26.321-4.829 11.069-4.654 17.324-12.439 31.509-15.364 8.327-1.717 11.537-8.949 9.774-17.267-2.639-12.447-13.695-30.583-17.862-50.243-15.653-73.837-33.846-149.114-33.846-224.592z" fill="#f3f0f3"/><path d="m475.216 474.54c-2.639-12.447-6.483-30.583-10.651-50.243-15.653-73.837-23.544-149.114-23.544-224.593v-13.416c0-55.817-24.433-109.186-67.669-144.487-32.081-26.193-73.012-41.801-117.352-41.801-8.409 0-16.694.564-24.821 1.653 36.335 4.769 69.622 19.659 96.803 41.851 44.998 36.739 70.426 92.282 70.426 150.373v13.963c0 78.553 8.213 156.895 24.503 233.741 4.337 20.461 8.339 39.335 11.085 52.29 1.023 4.827-.234 9.634-3.046 13.254 11.009-4.653 18.294-11.372 32.433-14.288 8.326-1.717 13.596-9.98 11.833-18.297z" fill="#e2dee2"/><path d="m332.552 271.884h-47.955l-27.533 5.979-25.304-5.979h-72.917c-6.04 0-10.936 4.896-10.936 10.936v.474c0 59.698 48.395 108.092 108.092 108.092 59.698 0 87.489-48.395 87.489-108.092l2.06-.474c.001-6.039-6.956-10.936-12.996-10.936z" fill="#685e68"/><path d="m353.156 271.884h-30.906c6.04 0 10.936 4.896 10.936 10.937v.474c0 54.45-40.263 99.489-92.64 106.988 5.048.723 10.205 1.104 15.453 1.104 59.698 0 108.092-48.395 108.092-108.092v-.474c.001-6.04-4.895-10.937-10.935-10.937z" fill="#554e56"/><path d="m256 429.578c-4.056 0-8.018.63-11.848-.134-27.627-5.505-48.447-29.887-48.447-59.132v-62.372c0-19.913 16.143-36.056 36.056-36.056h38.177c19.913 0 36.056 16.143 36.056 36.056v62.372c0 33.301-16.694 59.266-49.994 59.266z" fill="#fd8087"/><path d="m280.239 271.884h-23.694c19.913 0 36.056 16.143 36.056 36.056v62.372c0 29.244-20.822 53.62-48.449 59.125 3.831.764 7.791 1.171 11.847 1.171 33.3 0 60.296-26.995 60.296-60.295v-62.372c.001-19.914-16.142-36.057-36.056-36.057z" fill="#ee6161"/><g><path d="m256 370.447c-4.267 0-7.726-3.459-7.726-7.726v-58.344c0-4.268 3.459-7.726 7.726-7.726s7.726 3.459 7.726 7.726v58.344c0 4.267-3.459 7.726-7.726 7.726z" fill="#ee6161"/></g><path d="m496.439 250.324c-2.637-25.165-20.763-42.215-46.066-42.215-5.383 0-10.582-1.195-15.455.409-18.035 5.936-31.626 21.995-33.701 41.806l-4.89 57.84c-.387 4.575 2.366 8.744 6.634 10.438 6.974 2.77 9.342 9.002 20.001 9.002 13.704 0 13.704-10.302 27.408-10.302 5.699 0 9.029 1.781 11.959 3.862 4.117 2.924 7.446 5.409 15.453 5.409 10.66 0 10.969-6.232 17.944-9.002 4.268-1.695 7.022-5.864 6.635-10.44z" fill="#d7d0d6"/><g><path d="m504.42 308.162-4.89-57.839c-2.637-25.165-23.853-44.275-49.157-44.275-5.384 0-10.579.872-15.453 2.477 18.034 5.936 31.628 21.987 33.704 41.799l4.89 57.839c.387 4.576-2.367 8.745-6.635 10.44-1.737.69-3.188 1.594-4.553 2.564 4.116 2.924 7.447 6.438 15.454 6.438 10.66 0 13.029-6.232 20.004-9.002 4.269-1.696 7.023-5.865 6.636-10.441z" fill="#baafb9"/></g><path d="m107.693 250.324c-2.637-25.165-20.763-42.215-46.066-42.215-5.383 0-10.582-1.195-15.455.409-18.035 5.936-31.626 21.995-33.701 41.806l-4.89 57.84c-.387 4.575 2.366 8.744 6.634 10.438 6.974 2.77 9.342 9.002 20.001 9.002 13.704 0 13.704-10.302 27.408-10.302 5.699 0 9.029 1.781 11.959 3.862 4.117 2.924 7.446 5.409 15.453 5.409 10.66 0 10.969-6.232 17.944-9.002 4.268-1.695 7.022-5.864 6.635-10.44z" fill="#d7d0d6"/><g><path d="m115.674 308.162-4.89-57.839c-2.637-25.165-23.853-44.275-49.157-44.275-5.383 0-10.579.872-15.453 2.477 18.034 5.936 31.628 21.987 33.704 41.799l4.89 57.839c.387 4.576-2.367 8.745-6.635 10.44-1.737.69-3.188 1.594-4.553 2.564 4.117 2.924 7.447 6.438 15.454 6.438 10.66 0 13.029-6.232 20.004-9.002 4.269-1.696 7.023-5.865 6.636-10.441z" fill="#baafb9"/></g><path d="m379.181 176.288c0 28.366-21.965 50.332-50.332 50.332-4.079 0-8.046.555-11.85-.344-22.653-5.35-39.512-25.701-39.512-49.988 0-24.288 16.858-44.638 39.511-49.988 3.804-.898 7.772-.344 11.851-.344 28.367 0 50.332 21.965 50.332 50.332z" fill="#685e68"/><path d="m328.85 124.925c-4.079 0-8.042.49-11.847 1.389 22.652 5.351 39.515 25.686 39.515 49.973s-16.863 44.622-39.515 49.973c3.805.899 7.768 1.389 11.847 1.389 28.366 0 51.362-22.995 51.362-51.362 0-28.366-22.996-51.362-51.362-51.362z" fill="#554e56"/><path d="m216.332 176.288c0 18.701-14.481 33.182-33.182 33.182-2.689 0-5.305.366-7.812-.227-14.935-3.527-26.048-16.943-26.048-32.955s11.114-29.428 26.048-32.955c2.508-.592 5.124-.227 7.812-.227 18.701 0 33.182 14.481 33.182 33.182z" fill="#685e68"/><path d="m183.15 142.427c-2.689 0-5.302.323-7.81.916 14.934 3.527 26.051 16.934 26.051 32.945s-11.117 29.418-26.051 32.945c2.508.592 5.121.915 7.81.915 18.701 0 33.861-15.16 33.861-33.861s-15.16-33.86-33.861-33.86z" fill="#554e56"/></g></svg>